<?xml version="1.0" encoding="utf-8"?>
<!-- Generator: Adobe Illustrator 24.0.0, SVG Export Plug-In . SVG Version: 6.00 Build 0)  -->
<svg version="1.1" id="Capa_1" xmlns="http://www.w3.org/2000/svg" xmlns:xlink="http://www.w3.org/1999/xlink" x="0px" y="0px"
	 viewBox="0 0 14400 14400" style="enable-background:new 0 0 14400 14400;" xml:space="preserve">
<style type="text/css">
	.st0{fill:#F5333F;}
</style>
<path class="st0" d="M6754.16,7122.72c-0.51,2.46-1.07,4.91-1.52,7.38c-1.62,8.93-3.2,17.87-4.78,26.81
	c-1.26,7.1-2.48,14.21-3.77,21.31c-0.66,3.59-1.43,7.17-2.17,10.75c-0.34,1.68-1.46,2.42-3.27,2.42c-6.27-0.02-12.54,0-18.81,0
	c-1.78,0-3.09-0.65-3.1-2.44c-0.02-1.93,1.35-2.58,3.26-2.58c4.73,0.02,9.45-0.05,14.18,0.03c1.78,0.03,2.42-0.43,2.73-2.22
	c1.13-6.69,2.61-13.32,3.86-19.99c0.88-4.68,1.58-9.38,2.42-14.07c1.67-9.27,3.4-18.53,5.06-27.8c1.22-6.77,2.43-13.55,3.54-20.34
	c0.32-1.97,1.14-3.2,3.41-3.17c2.08,0.03,2.62,1.27,2.85,3c2.05,15.16,4.21,30.3,6.26,45.45c0.86,6.31,1.47,12.65,2.32,18.96
	c0.83,6.22,1.85,12.42,2.7,18.65c0.19,1.34,0.74,2.04,2.22,1.97c0.18-0.01,0.36,0.01,0.54,0c8.05-0.44,6.62,0.44,9.31,7.15
	c0.92,2.29,1.67,4.63,3.12,7.1c0.77-2.69,1.74-5.35,2.24-8.08c0.44-2.44,1.58-3.65,4.28-3.56c3,0.1,5.9,0.05,8.64-1.61
	c2.08-1.26,4.3-0.39,5.5,2.1c1.87,3.84,3.42,7.82,5.11,11.74c0.1,0.22,0.27,0.41,1,0.66c0.36-3.56,0.74-7.12,1.08-10.68
	c0.08-0.84,0.05-1.7,0.06-2.55c0.07-3.81,0.73-4.49,4.85-4.2c3.62,0.26,7.21,0.79,10.81,1.24c2.09,0.27,3.07,1.47,3.38,3.41
	c1.97,12.08,4.05,24.14,6,36.21c1.3,8.05,2.39,16.13,3.69,24.17c1.22,7.55,2.64,15.06,3.89,22.61c1.22,7.37,2.32,14.75,3.48,22.13
	c0.74,4.7,1.49,9.39,2.31,14.08c0.12,0.69,0.65,1.32,0.99,1.98c0.26-0.01,0.51-0.02,0.77-0.03c0.36-2.51,0.82-5.01,1.05-7.54
	c0.56-6.17,0.89-12.35,1.52-18.51c0.81-7.94,1.85-15.85,2.76-23.78c0.47-4.13,0.91-8.27,1.31-12.41c1.19-12.33,2.34-24.67,3.53-37
	c0.69-7.09,1.38-14.18,2.17-21.27c0.47-4.25,1.08-4.61,5.6-4.69c17.34-0.31,34.68-0.69,52.02-0.99c1.84-0.03,2.56-0.69,2.75-2.37
	c0.42-3.7,1-7.39,1.53-11.09c0.26-1.79,0.83-3.41,3.18-3.48c2.23-0.07,3,1.4,3.67,3.11c1.78,4.59,3.65,9.16,5.65,13.67
	c0.27,0.62,1.52,1.16,2.34,1.2c2.9,0.15,5.81,0.11,8.72,0.05c2.17-0.04,3.35,0.84,3.8,2.84c1.7,7.53,3.45,15.06,5.23,22.57
	c0.42,1.8,1.04,3.55,1.71,5.83c0.98-4.91,1.9-9.34,2.72-13.79c0.85-4.59,1.46-9.23,2.53-13.77c0.26-1.11,1.81-2.62,2.92-2.75
	c2.35-0.26,2.73-1.41,3.04-3.17c0.26-1.47,0.83-2.92,1.49-4.28c0.3-0.63,1.16-1.46,1.75-1.46c3.25,0.03,3.38-2.08,3.63-4.22
	c0.52-4.38,1.14-8.76,1.59-13.14c0.87-8.45,1.55-16.92,2.48-25.36c1.21-10.98,2.65-21.93,3.9-32.9c1.19-10.46,2.2-20.95,3.47-31.4
	c0.11-0.91,1.66-2.46,2.31-2.36c1.09,0.16,2.73,1.31,2.86,2.21c0.82,5.63,1.31,11.31,1.86,16.97c0.91,9.3,1.77,18.6,2.69,27.89
	c0.48,4.9,1.09,9.78,1.57,14.68c1.04,10.74,2.06,21.48,3.01,32.22c0.56,6.26,1,12.52,1.44,18.79c0.24,3.48,0.19,3.49,3.87,3.49
	c45.35,0,90.71,0,136.06,0c32.45,0,64.89,0,97.34,0c59.53,0,119.05-0.01,178.58-0.01c61.62,0,123.23,0.01,184.85-0.03
	c13.25-0.01,26.51-0.35,39.76-0.36c11.35-0.01,22.71,0.25,34.06,0.35c1.94,0.02,3.24,0.66,3.2,2.59c-0.04,2-1.52,2.41-3.37,2.42
	c-15.07,0.03-30.15,0.14-45.22,0.13c-64.88-0.04-129.76-0.13-194.65-0.16c-57.71-0.03-115.42-0.01-173.13-0.01
	c-87.07,0-174.13,0-261.2,0.01c-4.93,0-5.02-0.31-5.41-4.9c-0.81-9.55-1.92-19.07-2.84-28.61c-0.51-5.24-0.88-10.5-1.35-15.74
	c-1.15-12.6-2.32-25.21-3.49-37.81c-0.02-0.24-0.11-0.48-0.55-0.76c-0.51,3.98-1.07,7.96-1.51,11.95
	c-0.97,8.68-1.88,17.36-2.83,26.04c-0.46,4.22-1,8.43-1.42,12.65c-0.78,7.69-1.46,15.39-2.26,23.08c-0.46,4.38-0.94,8.77-1.66,13.12
	c-0.49,2.92-1.85,3.34-4.79,2.09c-0.59-0.25-1.46-0.05-2.17,0.07c-0.42,0.07-0.8,0.61-1.17,0.57c-3.74-0.35-3.5,2.3-3.93,4.47
	c-1.33,6.66-2.71,13.32-3.99,19.99c-0.92,4.82-1.67,9.67-2.62,14.49c-0.22,1.1-0.68,2.33-1.47,3.13c-1.39,1.39-3.86,0.82-4.36-0.98
	c-1.2-4.34-2.26-8.72-3.31-13.1c-1.28-5.36-2.5-10.73-3.75-16.09c-0.81-3.47-1.7-6.93-2.46-10.41c-0.33-1.54-1.16-2.09-2.82-2.02
	c-2.54,0.1-5.09-0.06-7.63,0.04c-2.6,0.1-3.99-1.03-4.76-3.27c-0.68-1.97-1.65-3.85-3.05-5.66c-0.17,1.56-0.34,3.13-0.5,4.69
	c-0.2,2.05-1.39,2.95-3.59,2.99c-9.81,0.17-19.61,0.42-29.42,0.61c-8.08,0.16-16.16,0.3-24.25,0.37c-1.54,0.01-2.31,0.39-2.47,1.95
	c-0.56,5.57-1.29,11.13-1.87,16.7c-1.71,16.31-3.41,32.61-5.07,48.92c-0.85,8.36-1.58,16.73-2.45,25.09
	c-1.24,11.99-2.57,23.97-3.81,35.96c-0.61,5.91-1.07,11.83-1.64,17.74c-0.18,1.9-0.33,3.87-3.21,3.85c-2.75-0.02-2.71-1.9-3.02-3.71
	c-1.63-9.64-3.37-19.26-4.98-28.9c-0.87-5.2-1.49-10.43-2.31-15.63c-1.42-9.06-2.9-18.11-4.37-27.16
	c-1.04-6.44-2.08-12.89-3.17-19.33c-1.25-7.36-2.59-14.71-3.82-22.08c-1.25-7.46-2.43-14.93-3.62-22.4
	c-0.43-2.69-0.85-5.37-1.18-8.07c-0.19-1.56-1.07-2.09-2.67-2.3c-5.58-0.72-5.55-0.77-5.85,4.48c-0.44,7.8-0.86,15.6-1.47,23.39
	c-0.07,0.92-1.22,2.4-1.99,2.48c-1.18,0.11-3-0.45-3.61-1.3c-1.06-1.5-1.4-3.44-2.06-5.19c-2.24-5.9-4.6-11.77-6.67-17.72
	c-0.77-2.22-1.76-3.34-4.39-2.83c-1.5,0.29-3.38-0.16-4.5,0.54c-0.9,0.56-0.96,2.35-1.32,3.61c-1.3,4.5-2.46,9.04-3.93,13.49
	c-0.35,1.07-1.51,2.35-2.59,2.67c-1.78,0.53-3-0.64-3.59-2.32c-2.1-5.95-4.32-11.86-6.34-17.83c-0.63-1.86-1.65-2.58-3.73-2.5
	c-6.85,0.24-7.02,0.5-8.02-6.8c-1.33-9.75-2.88-19.47-4.19-29.22c-1.21-9-2.2-18.04-3.36-27.05c-0.27-2.13-0.82-4.22-1.24-6.33
	C6754.53,7122.69,6754.34,7122.7,6754.16,7122.72z"/>
</svg>
